<?xml version="1.0" encoding="UTF-8"?> <svg xmlns="http://www.w3.org/2000/svg" xmlns:xlink="http://www.w3.org/1999/xlink" xmlns:xodm="http://www.corel.com/coreldraw/odm/2003" xml:space="preserve" width="348px" height="45px" version="1.1" style="shape-rendering:geometricPrecision; text-rendering:geometricPrecision; image-rendering:optimizeQuality; fill-rule:evenodd; clip-rule:evenodd" viewBox="0 0 230.74 29.94"> <defs> <style type="text/css"> .fil0 {fill:#231F20} </style> </defs> <g id="Layer_x0020_1"> <metadata id="CorelCorpID_0Corel-Layer"></metadata> <g id="_2873520454720"> <path class="fil0" d="M183.15 29.66l5.9 0 0 -14.5c0.66,0.44 2.46,2.77 3.11,3.61l4.47 5.46c0.58,0.7 1.05,1.24 1.59,1.9 3.42,4.23 2.12,3.53 6.95,3.53 0.61,0 0.8,-0.18 0.8,-0.8l0 -23.1c0,-1.34 -2.29,-0.8 -5.91,-0.8l0 14.5c-0.65,-0.44 -1,-1.04 -1.52,-1.7l-9.78 -11.98c-1.05,-1.27 -0.59,-0.82 -5.61,-0.82l0 24.7z"></path> <path class="fil0" d="M143.67 29.66l5.64 0 0 -14.5c0.92,0.62 5.06,5.82 6.18,7.25l3.02 3.69c3.75,4.2 1.21,3.56 7.72,3.56l0 -24.7 -5.91 0 0 14.5c-2.09,-2.41 -3.99,-4.84 -6.09,-7.34l-5.17 -6.37c-1.01,-1.25 -1.28,-0.79 -5.39,-0.79l0 24.7z"></path> <path class="fil0" d="M114.94 24.83l-4.3 0 0 -15.04c3.96,0 8.04,-0.47 10.75,1.88 3.86,3.33 3.88,13.16 -6.45,13.16zm-10.21 -19.07l0 23.1c0,0.62 0.19,0.8 0.81,0.8l10.74 0c17.97,0 17.75,-24.7 0.27,-24.7l-11.01 0c-0.62,0 -0.81,0.18 -0.81,0.8z"></path> <path class="fil0" d="M52.37 17.85c0,-11.82 15.03,-10.09 15.03,-0.81 0,10.85 -15.03,10.05 -15.03,0.81zm5.9 12.08l2.69 0c13.17,0 17.56,-19.06 4.46,-24.33 -7.19,-2.89 -16.18,-0.03 -18.59,8.05 -2.62,8.78 4.7,16.28 11.44,16.28z"></path> <path class="fil0" d="M211.34 5.76l0 23.1c0,0.62 0.19,0.8 0.81,0.8l17.72 0c1.2,0 0.81,-1.25 0.81,-4.03 0,-0.61 -0.19,-0.8 -0.81,-0.8l-12.62 0 0 -5.37 11.28 0 0 -4.57 -11.28 0 0 -5.1 12.89 0 0 -4.83 -17.99 0c-0.62,0 -0.81,0.18 -0.81,0.8z"></path> <path class="fil0" d="M77.07 18.65c0,6.29 3.76,11.28 9.67,11.28 4.74,0 7.21,0.08 10.54,-3.69 3.23,-3.64 2.35,-14.63 2.35,-20.48 0,-1.34 -2.29,-0.8 -5.91,-0.8l0 13.16c0,4.15 -1.37,6.91 -5.37,6.91 -4,0 -5.37,-2.76 -5.37,-6.91l0 -13.16 -5.91 0 0 13.69z"></path> <path class="fil0" d="M0 17.31c0,6.94 5.73,12.62 12.35,12.62 3.35,0 4.49,0.17 7.71,-1.42 1.51,-0.75 2.57,-1.72 3.57,-2.88 -0.32,-0.48 -3.23,-3.14 -3.76,-3.49 -1.38,0.93 -1.28,1.52 -3.32,2.32 -4.75,1.85 -10.37,-1.39 -10.37,-6.08 0,-2.47 -0.06,-4.97 2.21,-6.91 2.31,-1.97 6.08,-2.57 8.99,-1.06 1.1,0.57 1.85,1.45 2.76,2.07 0.54,-0.8 2.59,-2.99 3.49,-3.23 -0.84,-3.15 -8.49,-6.08 -14.94,-3.93 -5.25,1.75 -8.69,6.37 -8.69,11.99z"></path> <polygon class="fil0" points="27.12,29.66 45.38,29.66 45.38,24.83 33.03,24.83 33.03,4.96 27.12,4.96 "></polygon> <path class="fil0" d="M171.87 29.66c3.62,0 5.9,0.54 5.9,-0.8l0 -17.73c0,-1.34 -2.28,-0.8 -5.9,-0.8l0 19.33z"></path> <path class="fil0" d="M176.7 7.11c-2.43,0 -3.87,0.2 -5.91,-0.27 0,-0.12 -0.02,-0.75 -0.01,-0.82 0.2,-1.38 0.63,-0.57 1.25,-1.71 0.15,-0.28 1.01,-4.16 3.33,-0.7 1.26,-0.02 1.22,-0.48 2.24,-0.11 1.9,0.69 1.57,3.61 -0.9,3.61zm-8.32 -1.35c0,4.44 4.85,3.49 8.59,3.49 4.6,0 5.34,-6.05 1.81,-7.72 -1.15,-0.55 -1.48,-0.11 -2.47,-0.48 0,0 -3.46,-2.83 -5.67,0.8 -0.81,1.32 0.13,0.39 -1.2,1.75 -0.42,0.44 -1.06,1.36 -1.06,2.16z"></path> </g> </g> </svg> 